<?xml version="1.0" encoding="utf-8"?>
<!-- Generator: Adobe Illustrator 24.0.1, SVG Export Plug-In . SVG Version: 6.00 Build 0)  -->
<svg version="1.1" id="Layer_1" xmlns="http://www.w3.org/2000/svg" xmlns:xlink="http://www.w3.org/1999/xlink" x="0px" y="0px"
	 viewBox="0 0 230 230" style="enable-background:new 0 0 230 230;" xml:space="preserve">
<style type="text/css">
	.st0{fill:none;}
	.st1{fill:#023859;}
	.st2{fill:none;stroke:#023859;stroke-width:13;stroke-linecap:round;stroke-linejoin:round;stroke-miterlimit:10;}
</style>
<rect y="0" class="st0" width="230" height="230"/>
<g>
	<g>
		<path class="st1" d="M180.2,74.5c-2.8,0-5.1-2.3-5.1-5.1c0-2.8,2.3-5.1,5.1-5.1s5.1,2.3,5.1,5.1C185.3,72.2,183,74.5,180.2,74.5z
			 M180.2,67.3c-1.2,0-2.1,0.9-2.1,2.1c0,1.2,0.9,2.1,2.1,2.1c1.2,0,2.1-0.9,2.1-2.1C182.3,68.2,181.4,67.3,180.2,67.3z"/>
		<path class="st1" d="M169,57.4c-4.1,0-7.4-3.3-7.4-7.4c0-4.1,3.3-7.4,7.4-7.4c4.1,0,7.4,3.3,7.4,7.4
			C176.4,54.1,173.1,57.4,169,57.4z M169,45.5c-2.4,0-4.4,2-4.4,4.4c0,2.4,2,4.4,4.4,4.4s4.4-2,4.4-4.4
			C173.4,47.5,171.4,45.5,169,45.5z"/>
		<path class="st1" d="M151.8,44.4c-4.9,0-8.9-4-8.9-8.9s4-8.9,8.9-8.9c4.9,0,8.9,4,8.9,8.9S156.7,44.4,151.8,44.4z M151.8,29.6
			c-3.2,0-5.9,2.6-5.9,5.9s2.6,5.9,5.9,5.9c3.2,0,5.9-2.6,5.9-5.9S155,29.6,151.8,29.6z"/>
		<path class="st1" d="M130.7,37.4c-5.3,0-9.5-4.3-9.5-9.5s4.3-9.5,9.5-9.5c5.3,0,9.5,4.3,9.5,9.5S135.9,37.4,130.7,37.4z
			 M130.7,21.3c-3.6,0-6.5,2.9-6.5,6.5s2.9,6.5,6.5,6.5c3.6,0,6.5-2.9,6.5-6.5S134.3,21.3,130.7,21.3z"/>
		<path class="st1" d="M108.2,37.4c-2.6,0-5-1-6.8-2.8c-1.8-1.8-2.8-4.2-2.8-6.7c0-5.2,4.3-9.5,9.5-9.5c5.3,0,9.5,4.3,9.5,9.5
			S113.5,37.4,108.2,37.4z M108.2,21.3c-3.6,0-6.5,2.9-6.5,6.5c0,1.7,0.7,3.4,1.9,4.6c1.2,1.2,2.9,1.9,4.6,1.9
			c3.6,0,6.5-2.9,6.5-6.5S111.8,21.3,108.2,21.3z"/>
		<path class="st1" d="M87.1,44.4c-4.9,0-8.9-4-8.9-8.9c0-4.9,4-8.9,8.9-8.9c4.9,0,8.9,4,8.9,8.9C96,40.4,92,44.4,87.1,44.4z
			 M87.1,29.6c-3.2,0-5.9,2.6-5.9,5.9s2.6,5.9,5.9,5.9c3.2,0,5.9-2.6,5.9-5.9S90.3,29.6,87.1,29.6z"/>
		<path class="st1" d="M69.9,57.4c-4.1,0-7.4-3.3-7.5-7.4c0-4.1,3.3-7.5,7.5-7.5c4.1,0,7.5,3.3,7.5,7.5S74,57.4,69.9,57.4z
			 M69.9,45.5c-2.5,0-4.5,2-4.5,4.5c0,2.5,2,4.5,4.5,4.5c2.5,0,4.5-2,4.5-4.5C74.3,47.5,72.3,45.5,69.9,45.5z"/>
		<path class="st1" d="M58.6,74.5c-2.8,0-5.1-2.3-5.1-5.1s2.3-5.1,5.1-5.1c2.8,0,5.1,2.3,5.1,5.1S61.5,74.5,58.6,74.5z M58.6,67.3
			c-1.2,0-2.1,1-2.1,2.1c0,1.2,1,2.1,2.1,2.1c1.2,0,2.1-1,2.1-2.1C60.8,68.2,59.8,67.3,58.6,67.3z"/>
		<path class="st2" d="M54.7,91.5"/>
	</g>
	<path class="st1" d="M132.8,211.7c-0.6,0-1.1-0.3-1.3-0.8c-0.3-0.6-8-16-8.7-35.4c-0.4-11.5,1.7-21.9,6.4-31.1
		c5.8-11.4,15.5-20.8,28.8-27.9c19-10.5,34.9-20.1,37.7-30.8c0.2-0.7,0.8-1.1,1.4-1.1c0,0,0,0,0,0c0.7,0,1.3,0.4,1.4,1.1
		c0.1,0.5,3.4,12,4.3,27.9c0.5,9.4,0.1,18.3-1.2,26.6c-1.7,10.4-4.8,19.8-9.4,27.9c-9.4,16.8-24.8,28.2-45.6,34
		c-0.6,0.2-1.2,0-1.6-0.5c-1.9-2.5-1.6-8.2-1-12.6c1-6.8,3.3-14.7,6.2-21.5c1.2-2.7,2.8-5.9,4.7-8.9c-7.8,7.1-12.6,17.8-15.4,26.6
		c-4.2,13-5.2,24.8-5.2,25c-0.1,0.7-0.5,1.2-1.2,1.3C133,211.7,132.9,211.7,132.8,211.7z M196.7,91c-5.5,9.9-20.3,18.7-37.4,28.2
		c0,0,0,0,0,0c-23.1,12.3-34.4,31.1-33.6,56.1c0.4,12.4,3.9,23.3,6.2,29.3c0.7-4.8,2.1-12.1,4.7-20c2.5-7.9,5.7-14.6,9.4-20
		c4.7-6.9,10.3-11.7,16.7-14.3c0.7-0.3,1.5,0,1.9,0.7c0.4,0.7,0.2,1.5-0.4,1.9c-8.3,5.9-15.3,23.3-17.2,36.7c-0.7,4.9-0.5,7.9,0,9.4
		c19.5-5.6,33.8-16.5,42.7-32.2c9.9-17.7,11-38.5,10.2-52.8C199.3,104,197.8,95.7,196.7,91z M158.6,117.9L158.6,117.9L158.6,117.9z"
		/>
	<path class="st1" d="M104.4,192.7c-0.1,0-0.1,0-0.2,0c-0.7-0.1-1.2-0.6-1.3-1.3c0-0.1-1.2-11.9-6.1-24.7c-3.5-9.2-9.6-20.4-19.5-27
		c2.4,3,4.4,6.4,6,9.2c3.5,6.5,6.4,14.1,8,21c1.1,4.7,2,10.8,0.2,13.6c-0.3,0.5-1,0.8-1.6,0.6c-18.2-4.5-32.7-13.4-43.2-26.3
		c-8.4-10.3-14.2-23.2-17.2-38.3c-5.2-25.6-0.7-49.1-0.6-49.3c0.1-0.7,0.7-1.2,1.4-1.2c0.7,0,1.3,0.4,1.5,1
		C35.4,80.8,52.1,89,71.9,98c13.9,5.9,24.3,14.6,31,25.7c5.3,8.9,8.3,19.3,8.8,31.1c0.8,19.9-5.6,36.3-5.9,37
		C105.6,192.3,105,192.7,104.4,192.7z M69.3,132.7c0.1,0,0.3,0,0.4,0.1c7.2,2.2,13.7,6.7,19.1,13.3c4.3,5.2,7.9,11.8,10.9,19.6
		c2.8,7.3,4.4,14.3,5.3,19c1.8-6.5,4.3-17.6,3.7-29.9c-1.1-25.6-13.9-43.8-38-54.1c0,0,0,0,0,0c-17.8-8-33.2-15.6-39.6-25.2
		c-1,8-2.4,25.3,1.3,43.7c6.7,32.9,25.9,53.6,57,61.8c0.4-1.7,0.3-5.1-1-10.4c-3.1-13.1-11.1-29.8-19.9-35.1
		c-0.6-0.4-0.9-1.2-0.6-1.9C68.2,133.1,68.7,132.7,69.3,132.7z"/>
	<path class="st1" d="M124.6,127.4c-10.3,0-18.7-8.4-18.7-18.7c0-10.3,8.4-18.7,18.7-18.7c10.3,0,18.7,8.4,18.7,18.7
		C143.3,119,134.9,127.4,124.6,127.4z M124.6,93c-8.6,0-15.7,7-15.7,15.7c0,8.6,7,15.7,15.7,15.7s15.7-7,15.7-15.7
		C140.3,100.1,133.2,93,124.6,93z"/>
</g>
</svg>
